<?xml version="1.0" standalone="no"?>
<!DOCTYPE svg PUBLIC "-//W3C//DTD SVG 20010904//EN"
 "http://www.w3.org/TR/2001/REC-SVG-20010904/DTD/svg10.dtd">
<svg version="1.0" xmlns="http://www.w3.org/2000/svg"
 width="1245.000000pt" height="1245.000000pt" viewBox="0 0 1245.000000 1245.000000"
 preserveAspectRatio="xMidYMid meet">
<metadata>
Created by potrace 1.14, written by Peter Selinger 2001-2017
</metadata>
<g transform="translate(0.000000,1245.000000) scale(0.100000,-0.100000)"
fill="#000000" stroke="none">
<path d="M5180 11869 c-573 -43 -892 -170 -1196 -473 -290 -290 -441 -648
-475 -1122 -41 -557 125 -1048 470 -1395 234 -235 446 -336 851 -405 80 -14
210 -17 833 -21 l737 -4 0 1715 0 1716 -557 -1 c-307 -1 -605 -5 -663 -10z"/>
<path d="M6500 10164 l0 -1715 738 4 c622 4 752 7 832 21 296 50 474 115 660
239 105 70 292 261 369 377 226 339 325 739 292 1184 -34 474 -185 832 -475
1122 -261 260 -552 397 -958 448 -232 30 -394 36 -925 36 l-533 0 0 -1716z"/>
<path d="M4150 8343 c-756 -52 -1284 -185 -1725 -433 -77 -44 -217 -135 -257
-169 -92 -77 -178 -153 -202 -180 -11 -13 -36 -40 -53 -59 -18 -19 -43 -48
-55 -64 -13 -16 -29 -36 -35 -43 -7 -8 -13 -18 -13 -24 0 -6 -3 -11 -8 -11 -4
0 -18 -20 -32 -45 -14 -25 -27 -45 -30 -45 -3 0 -14 -20 -25 -45 -11 -25 -23
-45 -26 -45 -4 0 -10 -16 -13 -35 -4 -19 -11 -35 -16 -35 -6 0 -10 -9 -10 -20
0 -11 -4 -20 -9 -20 -5 0 -12 -18 -16 -40 -4 -22 -10 -40 -15 -40 -4 0 -11
-20 -14 -45 -4 -25 -11 -45 -17 -45 -5 0 -9 -15 -9 -34 0 -19 -4 -36 -10 -38
-5 -1 -12 -34 -16 -73 -4 -38 -12 -73 -18 -77 -15 -10 -15 -646 0 -656 6 -4
14 -38 18 -77 4 -38 11 -74 17 -79 5 -6 9 -23 9 -38 0 -15 4 -28 9 -28 5 0 12
-20 15 -45 4 -25 11 -45 15 -45 5 0 11 -15 15 -32 8 -41 29 -88 38 -88 4 0 10
-16 14 -35 3 -19 10 -35 15 -35 5 0 9 -6 9 -14 0 -8 6 -21 13 -28 6 -7 21 -30
32 -50 11 -21 22 -38 26 -38 4 0 9 -8 13 -17 8 -25 29 -57 44 -66 6 -4 12 -12
12 -17 0 -32 271 -296 379 -369 20 -14 38 -28 41 -31 14 -21 243 -152 366
-211 431 -206 948 -326 1592 -369 88 -6 589 -10 1173 -10 l1019 0 0 2025 0
2025 -1107 -2 c-610 -1 -1128 -3 -1153 -5z"/>
<path d="M6490 6326 l0 -2026 1019 0 c584 0 1085 4 1173 10 644 43 1161 163
1592 369 123 59 352 190 366 211 3 3 21 17 41 31 66 44 122 93 228 199 116
116 151 155 151 170 0 5 6 13 13 17 14 9 35 41 43 66 4 9 9 17 13 17 4 0 15
17 26 38 11 20 26 43 32 50 7 7 13 20 13 28 0 8 4 14 9 14 5 0 12 16 15 35 4
19 10 35 14 35 9 0 30 47 38 88 4 17 10 32 15 32 4 0 11 20 15 45 3 25 10 45
15 45 5 0 9 13 9 28 0 15 4 32 9 38 6 5 13 41 17 79 4 39 12 73 18 77 8 5 11
106 11 328 0 222 -3 323 -11 328 -6 4 -14 39 -18 77 -4 39 -11 72 -16 73 -6 2
-10 19 -10 38 0 19 -4 34 -9 34 -6 0 -13 20 -17 45 -3 25 -10 45 -14 45 -5 0
-11 18 -15 40 -4 22 -11 40 -16 40 -5 0 -9 9 -9 20 0 11 -4 20 -10 20 -5 0
-12 16 -16 35 -3 19 -9 35 -13 35 -3 0 -15 20 -26 45 -11 25 -22 45 -25 45 -3
0 -16 20 -30 45 -14 25 -28 45 -32 45 -5 0 -8 5 -8 11 0 6 -6 16 -12 24 -7 7
-23 27 -36 43 -12 16 -37 45 -55 64 -17 19 -42 46 -53 59 -23 26 -113 106
-201 179 -30 25 -195 135 -247 165 -317 180 -725 312 -1176 380 -381 58 -374
58 -1642 62 l-1178 4 0 -2025z"/>
<path d="M5180 4189 c-573 -43 -892 -170 -1196 -473 -290 -290 -441 -648 -475
-1122 -41 -557 125 -1048 470 -1395 234 -235 446 -336 851 -405 80 -14 210
-17 833 -21 l737 -4 0 1715 0 1716 -557 -1 c-307 -1 -605 -5 -663 -10z"/>
<path d="M6500 2484 l0 -1715 738 4 c622 4 752 7 832 21 296 50 474 115 660
239 105 70 292 261 369 377 226 339 325 739 292 1184 -34 474 -185 832 -475
1122 -261 260 -552 397 -958 448 -232 30 -394 36 -925 36 l-533 0 0 -1716z"/>
</g>
</svg>
